<svg width="55" height="38" viewBox="0 0 55 38" fill="none" xmlns="http://www.w3.org/2000/svg">
<path d="M48.697 0.333496H6.27277C2.99783 0.333496 0.333374 2.99795 0.333374 6.27289V31.7274C0.333374 35.0024 2.99783 37.6668 6.27277 37.6668H48.697C51.9719 37.6668 54.6364 35.0024 54.6364 31.7274V6.27289C54.6364 2.99795 51.9719 0.333496 48.697 0.333496ZM6.27277 3.72744H48.697C50.1005 3.72744 51.2425 4.86939 51.2425 6.27289V9.66683H3.72731V6.27289C3.72731 4.86939 4.86927 3.72744 6.27277 3.72744ZM48.697 34.2729H6.27277C4.86927 34.2729 3.72731 33.1309 3.72731 31.7274V13.0608H51.2425V31.7274C51.2425 33.1309 50.1005 34.2729 48.697 34.2729Z" fill="white"/>
<path d="M12.2122 29.1817H10.5152C9.57806 29.1817 8.81824 28.4219 8.81824 27.4848V25.7878C8.81824 24.8506 9.57806 24.0908 10.5152 24.0908H12.2122C13.1493 24.0908 13.9091 24.8506 13.9091 25.7878V27.4848C13.9091 28.4219 13.1493 29.1817 12.2122 29.1817Z" fill="white"/>
</svg>
