<svg width="50" height="51" viewBox="0 0 50 51" fill="none" xmlns="http://www.w3.org/2000/svg">
<path d="M47.0773 24.2682V18.292C47.0773 15.3559 44.7889 12.9565 41.9374 12.8518V9.18354C41.9374 7.27284 40.4148 5.71836 38.5432 5.71836H29.1985L27.9917 2.29407C27.684 1.42085 27.0612 0.723057 26.2381 0.329314C25.4149 -0.0645281 24.4911 -0.106506 23.637 0.210904L6.67969 6.51169C5.82647 6.8287 5.14577 7.46619 4.7629 8.30675C4.38002 9.1473 4.34114 10.0895 4.65351 10.96L5.33478 12.8584C2.54809 13.0343 0.333374 15.4035 0.333374 18.292V45.2214C0.333374 48.2239 2.72614 50.6667 5.66723 50.6667H41.7435C44.6846 50.6667 47.0773 48.2239 47.0773 45.2214V39.0471C48.72 38.8062 49.9867 37.3605 49.9867 35.6179V27.6975C49.9867 25.9549 48.72 24.5092 47.0773 24.2682ZM47.0773 35.6179C47.0773 35.8909 46.8598 36.1129 46.5924 36.1129H38.8341C36.4278 36.1129 34.47 34.1143 34.47 31.6577C34.47 29.2011 36.4278 27.2025 38.8341 27.2025H46.5924C46.8598 27.2025 47.0773 27.4245 47.0773 27.6975V35.6179ZM7.38531 9.93825C7.32509 9.77044 7.36921 9.62876 7.40093 9.55916C7.43264 9.48966 7.51032 9.36382 7.67479 9.30274L24.632 3.00196C24.7967 2.94087 24.9354 2.98631 25.0036 3.01889C25.0718 3.05146 25.1949 3.13126 25.2541 3.29957L26.1066 5.71846H25.451C23.5794 5.71846 22.0567 7.27294 22.0567 9.18363V12.8468H8.4291L7.38531 9.93825ZM39.0281 9.18354V12.8467H24.9661V9.18354C24.9661 8.91058 25.1836 8.68851 25.451 8.68851H38.5432C38.8105 8.68851 39.0281 8.91058 39.0281 9.18354ZM41.7435 47.6965H5.66723C4.33037 47.6965 3.24275 46.5862 3.24275 45.2214V18.292C3.24275 16.9272 4.33037 15.8169 5.66723 15.8169H41.7435C43.0803 15.8169 44.168 16.9272 44.168 18.292V24.2323H38.8341C34.8235 24.2323 31.5607 27.5633 31.5607 31.6577C31.5607 35.752 34.8235 39.0831 38.8341 39.0831H44.168V45.2214C44.168 46.5862 43.0803 47.6965 41.7435 47.6965Z" fill="white"/>
<path d="M39.3467 33.4399C40.1861 33.4399 40.8667 32.7594 40.8667 31.9199C40.8667 31.0804 40.1861 30.3999 39.3467 30.3999C38.5072 30.3999 37.8267 31.0804 37.8267 31.9199C37.8267 32.7594 38.5072 33.4399 39.3467 33.4399Z" fill="white"/>
</svg>
