<svg width="44" height="50" viewBox="0 0 44 50" fill="none" xmlns="http://www.w3.org/2000/svg">
<path d="M39.5508 5.85938H32.2266V4.39453C32.2266 1.97139 30.2552 0 27.832 0H16.1133C13.6901 0 11.7188 1.97139 11.7188 4.39453V5.85938H4.39453C1.97139 5.85938 0 7.83076 0 10.2539C0 12.2 1.27197 13.8536 3.02783 14.4298L5.64063 45.9703C5.82881 48.23 7.75244 50 10.0199 50H33.9254C36.193 50 38.1166 48.23 38.3049 45.9696L40.9175 14.4297C42.6733 13.8536 43.9453 12.2 43.9453 10.2539C43.9453 7.83076 41.9739 5.85938 39.5508 5.85938ZM14.6484 4.39453C14.6484 3.58682 15.3056 2.92969 16.1133 2.92969H27.832C28.6397 2.92969 29.2969 3.58682 29.2969 4.39453V5.85938H14.6484V4.39453ZM35.3852 45.7271C35.3224 46.4803 34.6812 47.0703 33.9254 47.0703H10.0199C9.26416 47.0703 8.62295 46.4803 8.56035 45.7278L5.98574 14.6484H37.9596L35.3852 45.7271ZM39.5508 11.7188H4.39453C3.58682 11.7188 2.92969 11.0616 2.92969 10.2539C2.92969 9.44619 3.58682 8.78906 4.39453 8.78906H39.5508C40.3585 8.78906 41.0156 9.44619 41.0156 10.2539C41.0156 11.0616 40.3585 11.7188 39.5508 11.7188Z" fill="#A54F50"/>
<path d="M16.1103 42.5852L14.6455 18.9524C14.5954 18.1449 13.8965 17.5307 13.0928 17.581C12.2853 17.6311 11.6714 18.3262 11.7214 19.1336L13.1862 42.7666C13.2343 43.5432 13.8793 44.1408 14.6468 44.1408C15.4952 44.1408 16.1624 43.4263 16.1103 42.5852Z" fill="#A54F50"/>
<path d="M21.9727 17.5781C21.1637 17.5781 20.5078 18.234 20.5078 19.043V42.6758C20.5078 43.4848 21.1637 44.1406 21.9727 44.1406C22.7816 44.1406 23.4375 43.4848 23.4375 42.6758V19.043C23.4375 18.234 22.7816 17.5781 21.9727 17.5781Z" fill="#A54F50"/>
<path d="M30.8521 17.581C30.0464 17.5309 29.3495 18.1449 29.2995 18.9524L27.8346 42.5852C27.7847 43.3926 28.3987 44.0877 29.2061 44.1378C30.014 44.1878 30.7087 43.5736 30.7587 42.7664L32.2236 19.1336C32.2736 18.3261 31.6596 17.631 30.8521 17.581Z" fill="#A54F50"/>
</svg>
