<svg width="50" height="50" viewBox="0 0 50 50" fill="none" xmlns="http://www.w3.org/2000/svg">
<path d="M35.3333 40.625H14.9167C14.1431 40.625 13.4013 40.3177 12.8543 39.7707C12.3073 39.2237 12 38.4819 12 37.7083V12.9167C12 12.1431 12.3073 11.4013 12.8543 10.8543C13.4013 10.3073 14.1431 10 14.9167 10H30.4552C31.1985 9.99875 31.914 10.2824 32.4546 10.7926L37.3327 15.3864C37.6219 15.6595 37.8524 15.9887 38.0101 16.3539C38.1678 16.7191 38.2494 17.1126 38.25 17.5104V37.7083C38.25 38.4819 37.9427 39.2237 37.3957 39.7707C36.8487 40.3177 36.1069 40.625 35.3333 40.625ZM14.9167 11.4583C14.5299 11.4583 14.159 11.612 13.8855 11.8855C13.612 12.159 13.4583 12.5299 13.4583 12.9167V37.7083C13.4583 38.0951 13.612 38.466 13.8855 38.7395C14.159 39.013 14.5299 39.1667 14.9167 39.1667H35.3333C35.7201 39.1667 36.091 39.013 36.3645 38.7395C36.638 38.466 36.7917 38.0951 36.7917 37.7083V17.5104C36.7914 17.3116 36.7506 17.1149 36.6717 16.9323C36.5929 16.7498 36.4776 16.5852 36.333 16.4488L31.4549 11.855C31.1846 11.5999 30.8269 11.4579 30.4552 11.4583H14.9167Z" fill="#006EE6"/>
<path d="M37.3095 17.2917H32.4167C31.8366 17.2917 31.2802 17.0612 30.87 16.651C30.4597 16.2407 30.2292 15.6843 30.2292 15.1042V10.7875C30.2292 10.5941 30.3061 10.4087 30.4428 10.2719C30.5796 10.1352 30.765 10.0583 30.9584 10.0583C31.1518 10.0583 31.3373 10.1352 31.474 10.2719C31.6108 10.4087 31.6876 10.5941 31.6876 10.7875V15.1042C31.6876 15.2976 31.7644 15.483 31.9011 15.6198C32.0379 15.7565 32.2234 15.8333 32.4167 15.8333H37.3095C37.5028 15.8333 37.6883 15.9102 37.8251 16.0469C37.9618 16.1837 38.0386 16.3691 38.0386 16.5625C38.0386 16.7559 37.9618 16.9414 37.8251 17.0781C37.6883 17.2149 37.5028 17.2917 37.3095 17.2917Z" fill="#006EE6"/>
<path d="M33.8749 24.5833H16.3749C16.1815 24.5833 15.9961 24.5065 15.8593 24.3698C15.7226 24.233 15.6458 24.0476 15.6458 23.8542V20.9375C15.6458 20.3573 15.8762 19.8009 16.2865 19.3907C16.6967 18.9805 17.2531 18.75 17.8333 18.75H32.4166C32.9967 18.75 33.5531 18.9805 33.9634 19.3907C34.3736 19.8009 34.6041 20.3573 34.6041 20.9375V23.8542C34.6041 24.0476 34.5273 24.233 34.3905 24.3698C34.2538 24.5065 34.0683 24.5833 33.8749 24.5833ZM17.1041 23.125H33.1458V20.9375C33.1458 20.7441 33.0689 20.5586 32.9322 20.4219C32.7954 20.2852 32.61 20.2083 32.4166 20.2083H17.8333C17.6399 20.2083 17.4544 20.2852 17.3177 20.4219C17.1809 20.5586 17.1041 20.7441 17.1041 20.9375V23.125Z" fill="#006EE6"/>
<path d="M33.8749 28.9583H16.3749C16.1815 28.9583 15.9961 28.8815 15.8593 28.7448C15.7226 28.608 15.6458 28.4226 15.6458 28.2292V23.8542C15.6458 23.6608 15.7226 23.4753 15.8593 23.3386C15.9961 23.2018 16.1815 23.125 16.3749 23.125H33.8749C34.0683 23.125 34.2538 23.2018 34.3905 23.3386C34.5273 23.4753 34.6041 23.6608 34.6041 23.8542V28.2292C34.6041 28.4226 34.5273 28.608 34.3905 28.7448C34.2538 28.8815 34.0683 28.9583 33.8749 28.9583ZM17.1041 27.5H33.1458V24.5833H17.1041V27.5Z" fill="#006EE6"/>
<path d="M33.8749 33.3333H17.8333C17.2531 33.3333 16.6967 33.1029 16.2865 32.6926C15.8762 32.2824 15.6458 31.726 15.6458 31.1458V28.2292C15.6458 28.0358 15.7226 27.8503 15.8593 27.7136C15.9961 27.5768 16.1815 27.5 16.3749 27.5H33.8749C34.0683 27.5 34.2538 27.5768 34.3905 27.7136C34.5273 27.8503 34.6041 28.0358 34.6041 28.2292V32.6042C34.6041 32.7976 34.5273 32.983 34.3905 33.1198C34.2538 33.2565 34.0683 33.3333 33.8749 33.3333ZM17.1041 28.9583V31.1458C17.1041 31.3392 17.1809 31.5247 17.3177 31.6614C17.4544 31.7982 17.6399 31.875 17.8333 31.875H33.1458V28.9583H17.1041Z" fill="#006EE6"/>
<path d="M33.8749 33.3333H29.4999C29.3065 33.3333 29.1211 33.2565 28.9843 33.1198C28.8476 32.983 28.7708 32.7976 28.7708 32.6042V19.4792C28.7708 19.2858 28.8476 19.1003 28.9843 18.9636C29.1211 18.8268 29.3065 18.75 29.4999 18.75H32.4166C32.9967 18.75 33.5531 18.9805 33.9634 19.3907C34.3736 19.8009 34.6041 20.3573 34.6041 20.9375V32.6042C34.6041 32.7976 34.5273 32.983 34.3905 33.1198C34.2538 33.2565 34.0683 33.3333 33.8749 33.3333ZM30.2291 31.875H33.1458V20.9375C33.1458 20.7441 33.0689 20.5586 32.9322 20.4219C32.7954 20.2852 32.61 20.2083 32.4166 20.2083H30.2291V31.875Z" fill="#006EE6"/>
<path d="M32.4165 36.9789H23.6665C23.0863 36.9789 22.5299 36.7485 22.1197 36.3382C21.7095 35.928 21.479 35.3716 21.479 34.7914V32.6039C21.479 32.4105 21.5558 32.2251 21.6926 32.0883C21.8293 31.9516 22.0148 31.8748 22.2082 31.8748H33.8748C34.0682 31.8748 34.2537 31.9516 34.3904 32.0883C34.5272 32.2251 34.604 32.4105 34.604 32.6039V34.7914C34.604 35.3716 34.3735 35.928 33.9633 36.3382C33.5531 36.7485 32.9967 36.9789 32.4165 36.9789ZM22.9373 33.3331V34.7914C22.9373 34.9848 23.0142 35.1703 23.1509 35.307C23.2876 35.4438 23.4731 35.5206 23.6665 35.5206H32.4165C32.6099 35.5206 32.7954 35.4438 32.9321 35.307C33.0688 35.1703 33.1457 34.9848 33.1457 34.7914V33.3331H22.9373Z" fill="#006EE6"/>
<path d="M20.7499 15.8333H16.3749C16.1815 15.8333 15.9961 15.7565 15.8593 15.6198C15.7226 15.483 15.6458 15.2976 15.6458 15.1042C15.6458 14.9108 15.7226 14.7253 15.8593 14.5886C15.9961 14.4518 16.1815 14.375 16.3749 14.375H20.7499C20.9433 14.375 21.1288 14.4518 21.2655 14.5886C21.4023 14.7253 21.4791 14.9108 21.4791 15.1042C21.4791 15.2976 21.4023 15.483 21.2655 15.6198C21.1288 15.7565 20.9433 15.8333 20.7499 15.8333Z" fill="#006EE6"/>
</svg>
