<svg width="50" height="50" viewBox="0 0 50 50" fill="none" xmlns="http://www.w3.org/2000/svg">
<path d="M35.5077 23.2032C34.838 23.2032 34.2968 23.737 34.2968 24.3945V33.9258C34.2968 34.5822 33.7542 35.1171 33.0859 35.1171H16.1328C15.4643 35.1171 14.9219 34.5822 14.9219 33.9258V17.2461C14.9219 16.5897 15.4643 16.0548 16.1328 16.0548H25.8203C26.49 16.0548 27.0312 15.5209 27.0312 14.8634C27.0312 14.2057 26.49 13.6719 25.8203 13.6719H16.1328C14.1299 13.6719 12.5 15.2755 12.5 17.2461V33.9258C12.5 35.8964 14.1299 37.5 16.1328 37.5H33.0859C35.0888 37.5 36.7188 35.8964 36.7188 33.9258V24.3945C36.7188 23.7357 36.1773 23.2032 35.5077 23.2032Z" fill="#E0AC14"/>
<path d="M23.2957 22.0476C23.2113 22.132 23.1545 22.2394 23.1304 22.3552L22.2774 26.6223C22.2376 26.8201 22.3003 27.024 22.4426 27.1676C22.5573 27.2823 22.7117 27.3438 22.8699 27.3438C22.9084 27.3438 22.9484 27.3402 22.9881 27.3318L27.2536 26.4787C27.3718 26.4544 27.4792 26.3978 27.5625 26.3132L37.1094 16.7656L32.8439 12.5L23.2957 22.0476Z" fill="#E0AC14"/>
</svg>
