<svg width="40" height="40" viewBox="0 0 40 40" fill="none" xmlns="http://www.w3.org/2000/svg">
<path d="M36.8123 17.1251C35.7409 17.1251 34.8749 17.9792 34.8749 19.0312V34.2813C34.8749 35.3315 34.0068 36.1874 32.9375 36.1874H5.81248C4.74286 36.1874 3.87511 35.3315 3.87511 34.2813V7.59373C3.87511 6.54346 4.74286 5.6876 5.81248 5.6876H21.3126C22.3839 5.6876 23.2499 4.83349 23.2499 3.78148C23.2499 2.72911 22.3839 1.875 21.3126 1.875H5.81248C2.60788 1.875 0 4.44082 0 7.59373V34.2813C0 37.4342 2.60788 40 5.81248 40H32.9375C36.1421 40 38.75 37.4342 38.75 34.2813V19.0312C38.75 17.9771 37.8837 17.1251 36.8123 17.1251Z" fill="#E0AC14"/>
<path d="M17.2731 15.2762C17.1381 15.4112 17.0472 15.583 17.0087 15.7683L15.6438 22.5957C15.5802 22.9121 15.6806 23.2384 15.9082 23.4682C16.0917 23.6517 16.3388 23.75 16.5919 23.75C16.6534 23.75 16.7174 23.7443 16.781 23.7309L23.6058 22.3659C23.7949 22.327 23.9667 22.2365 24.1 22.1011L39.375 6.82496L32.5502 0L17.2731 15.2762Z" fill="#E0AC14"/>
</svg>
