<svg width="50" height="50" viewBox="0 0 50 50" fill="none" xmlns="http://www.w3.org/2000/svg">
<path d="M35.9692 13.0371H31.3916V12.1216C31.3916 10.6071 30.1595 9.375 28.645 9.375H21.3208C19.8063 9.375 18.5742 10.6071 18.5742 12.1216V13.0371H13.9966C12.4821 13.0371 11.25 14.2692 11.25 15.7837C11.25 17 12.045 18.0335 13.1424 18.3936L14.7754 38.1064C14.893 39.5187 16.0953 40.625 17.5125 40.625H32.4534C33.8706 40.625 35.0729 39.5187 35.1906 38.106L36.8234 18.3936C37.9208 18.0335 38.7158 17 38.7158 15.7837C38.7158 14.2692 37.4837 13.0371 35.9692 13.0371ZM20.4053 12.1216C20.4053 11.6168 20.816 11.2061 21.3208 11.2061H28.645C29.1498 11.2061 29.5605 11.6168 29.5605 12.1216V13.0371H20.4053V12.1216ZM33.3657 37.9545C33.3265 38.4252 32.9258 38.7939 32.4534 38.7939H17.5125C17.0401 38.7939 16.6393 38.4252 16.6002 37.9549L14.9911 18.5303H34.9747L33.3657 37.9545ZM35.9692 16.6992H13.9966C13.4918 16.6992 13.0811 16.2885 13.0811 15.7837C13.0811 15.2789 13.4918 14.8682 13.9966 14.8682H35.9692C36.4741 14.8682 36.8848 15.2789 36.8848 15.7837C36.8848 16.2885 36.4741 16.6992 35.9692 16.6992Z" fill="#A54F50"/>
<path d="M21.3191 35.9908L20.4036 21.2202C20.3723 20.7155 19.9354 20.3317 19.4332 20.3631C18.9285 20.3944 18.5447 20.8289 18.576 21.3335L19.4915 36.1041C19.5216 36.5895 19.9247 36.963 20.4044 36.963C20.9346 36.963 21.3516 36.5164 21.3191 35.9908Z" fill="#A54F50"/>
<path d="M24.9829 20.3613C24.4773 20.3613 24.0674 20.7712 24.0674 21.2769V36.0474C24.0674 36.553 24.4773 36.9629 24.9829 36.9629C25.4885 36.9629 25.8984 36.553 25.8984 36.0474V21.2769C25.8984 20.7712 25.4885 20.3613 24.9829 20.3613Z" fill="#A54F50"/>
<path d="M30.5327 20.3631C30.0292 20.3318 29.5936 20.7155 29.5623 21.2202L28.6468 35.9907C28.6156 36.4954 28.9993 36.9298 29.504 36.9611C30.0089 36.9924 30.4431 36.6085 30.4744 36.104L31.3899 21.3335C31.4211 20.8288 31.0374 20.3944 30.5327 20.3631Z" fill="#A54F50"/>
</svg>
