<svg width="42" height="49" viewBox="0 0 42 49" fill="none" xmlns="http://www.w3.org/2000/svg">
<path d="M37.3333 49H4.66667C3.42899 49 2.242 48.5083 1.36683 47.6332C0.491665 46.758 0 45.571 0 44.3333V4.66667C0 3.429 0.491665 2.24201 1.36683 1.36684C2.242 0.491672 3.42899 6.58375e-06 4.66667 6.58375e-06H29.5283C30.7176 -0.00199365 31.8624 0.451848 32.7273 1.26817L40.5323 8.61817C40.995 9.05522 41.3638 9.58198 41.6161 10.1663C41.8685 10.7506 41.9991 11.3802 42 12.0167V44.3333C42 45.571 41.5083 46.758 40.6332 47.6332C39.758 48.5083 38.571 49 37.3333 49ZM4.66667 2.33334C4.04783 2.33334 3.45434 2.57917 3.01675 3.01676C2.57917 3.45434 2.33333 4.04783 2.33333 4.66667V44.3333C2.33333 44.9522 2.57917 45.5457 3.01675 45.9832C3.45434 46.4208 4.04783 46.6667 4.66667 46.6667H37.3333C37.9522 46.6667 38.5457 46.4208 38.9832 45.9832C39.4208 45.5457 39.6667 44.9522 39.6667 44.3333V12.0167C39.6662 11.6985 39.6009 11.3838 39.4748 11.0917C39.3486 10.7997 39.1642 10.5364 38.9328 10.318L31.1278 2.96801C30.6954 2.55978 30.123 2.33268 29.5283 2.33334H4.66667Z" fill="white"/>
<path d="M40.4948 11.6671H32.6665C31.7382 11.6671 30.848 11.2983 30.1916 10.642C29.5353 9.98558 29.1665 9.09534 29.1665 8.16708V1.26042C29.1665 0.950997 29.2894 0.654251 29.5082 0.435459C29.727 0.216667 30.0238 0.09375 30.3332 0.09375C30.6426 0.09375 30.9393 0.216667 31.1581 0.435459C31.3769 0.654251 31.4998 0.950997 31.4998 1.26042V8.16708C31.4998 8.4765 31.6228 8.77325 31.8415 8.99204C32.0603 9.21083 32.3571 9.33375 32.6665 9.33375H40.4948C40.8043 9.33375 41.101 9.45667 41.3198 9.67546C41.5386 9.89425 41.6615 10.191 41.6615 10.5004C41.6615 10.8098 41.5386 11.1066 41.3198 11.3254C41.101 11.5442 40.8043 11.6671 40.4948 11.6671Z" fill="white"/>
<path d="M34.9999 23.3333H6.99992C6.6905 23.3333 6.39375 23.2104 6.17496 22.9916C5.95617 22.7728 5.83325 22.4761 5.83325 22.1667V17.5C5.83325 16.5717 6.202 15.6815 6.85838 15.0251C7.51475 14.3687 8.40499 14 9.33325 14H32.6666C33.5948 14 34.4851 14.3687 35.1415 15.0251C35.7978 15.6815 36.1666 16.5717 36.1666 17.5V22.1667C36.1666 22.4761 36.0437 22.7728 35.8249 22.9916C35.6061 23.2104 35.3093 23.3333 34.9999 23.3333ZM8.16658 21H33.8332V17.5C33.8332 17.1906 33.7103 16.8938 33.4915 16.675C33.2727 16.4562 32.976 16.3333 32.6666 16.3333H9.33325C9.02383 16.3333 8.72709 16.4562 8.50829 16.675C8.2895 16.8938 8.16658 17.1906 8.16658 17.5V21Z" fill="white"/>
<path d="M34.9999 30.3333H6.99992C6.6905 30.3333 6.39375 30.2104 6.17496 29.9916C5.95617 29.7728 5.83325 29.4761 5.83325 29.1667V22.1667C5.83325 21.8572 5.95617 21.5605 6.17496 21.3417C6.39375 21.1229 6.6905 21 6.99992 21H34.9999C35.3093 21 35.6061 21.1229 35.8249 21.3417C36.0437 21.5605 36.1666 21.8572 36.1666 22.1667V29.1667C36.1666 29.4761 36.0437 29.7728 35.8249 29.9916C35.6061 30.2104 35.3093 30.3333 34.9999 30.3333ZM8.16658 28H33.8332V23.3333H8.16658V28Z" fill="white"/>
<path d="M34.9999 37.3333H9.33325C8.40499 37.3333 7.51475 36.9646 6.85838 36.3082C6.202 35.6518 5.83325 34.7616 5.83325 33.8333V29.1667C5.83325 28.8572 5.95617 28.5605 6.17496 28.3417C6.39375 28.1229 6.6905 28 6.99992 28H34.9999C35.3093 28 35.6061 28.1229 35.8249 28.3417C36.0437 28.5605 36.1666 28.8572 36.1666 29.1667V36.1667C36.1666 36.4761 36.0437 36.7728 35.8249 36.9916C35.6061 37.2104 35.3093 37.3333 34.9999 37.3333ZM8.16658 30.3333V33.8333C8.16658 34.1428 8.2895 34.4395 8.50829 34.6583C8.72709 34.8771 9.02383 35 9.33325 35H33.8332V30.3333H8.16658Z" fill="white"/>
<path d="M34.9999 37.3333H27.9999C27.6905 37.3333 27.3938 37.2104 27.175 36.9916C26.9562 36.7728 26.8333 36.4761 26.8333 36.1667V15.1667C26.8333 14.8572 26.9562 14.5605 27.175 14.3417C27.3938 14.1229 27.6905 14 27.9999 14H32.6666C33.5948 14 34.4851 14.3687 35.1415 15.0251C35.7978 15.6815 36.1666 16.5717 36.1666 17.5V36.1667C36.1666 36.4761 36.0437 36.7728 35.8249 36.9916C35.6061 37.2104 35.3093 37.3333 34.9999 37.3333ZM29.1666 35H33.8333V17.5C33.8333 17.1906 33.7103 16.8938 33.4915 16.675C33.2728 16.4562 32.976 16.3333 32.6666 16.3333H29.1666V35Z" fill="white"/>
<path d="M32.6665 43.1667H18.6665C17.7382 43.1667 16.848 42.7979 16.1916 42.1415C15.5353 41.4852 15.1665 40.5949 15.1665 39.6667V36.1667C15.1665 35.8572 15.2894 35.5605 15.5082 35.3417C15.727 35.1229 16.0238 35 16.3332 35H34.9998C35.3093 35 35.606 35.1229 35.8248 35.3417C36.0436 35.5605 36.1665 35.8572 36.1665 36.1667V39.6667C36.1665 40.5949 35.7978 41.4852 35.1414 42.1415C34.485 42.7979 33.5948 43.1667 32.6665 43.1667ZM17.4998 37.3333V39.6667C17.4998 39.9761 17.6228 40.2728 17.8415 40.4916C18.0603 40.7104 18.3571 40.8333 18.6665 40.8333H32.6665C32.9759 40.8333 33.2727 40.7104 33.4915 40.4916C33.7103 40.2728 33.8332 39.9761 33.8332 39.6667V37.3333H17.4998Z" fill="white"/>
<path d="M13.9999 9.33333H6.99992C6.6905 9.33333 6.39375 9.21042 6.17496 8.99162C5.95617 8.77283 5.83325 8.47609 5.83325 8.16667C5.83325 7.85725 5.95617 7.5605 6.17496 7.34171C6.39375 7.12292 6.6905 7 6.99992 7H13.9999C14.3093 7 14.6061 7.12292 14.8249 7.34171C15.0437 7.5605 15.1666 7.85725 15.1666 8.16667C15.1666 8.47609 15.0437 8.77283 14.8249 8.99162C14.6061 9.21042 14.3093 9.33333 13.9999 9.33333Z" fill="white"/>
</svg>
