<svg width="35" height="34" viewBox="0 0 35 34" fill="none" xmlns="http://www.w3.org/2000/svg">
<path d="M32.8072 22.4604L12.7746 33.3687C11.2232 34.2135 9.27983 33.6086 8.4821 32.0323L0.748098 16.7571C0.00113165 15.3574 0.513735 13.3194 2.11553 12.2966L19.7256 3.37379L22.107 2.16822C23.2712 1.5788 24.6913 2.08088 25.2261 3.27092L25.7722 4.4858C26.5601 4.56262 27.2884 5.0462 27.6379 5.82408L33.7969 19.5211C34.2865 20.609 33.8552 21.8903 32.8069 22.4605L32.8072 22.4604Z" fill="#E89314"/>
<g opacity="0.3">
<path d="M5.45116 14.2138C4.43041 15.2193 0.1692 15.0158 3.13547 12.9919L20.3555 4.25501L22.535 3.15163C23.6984 2.56222 25.1192 3.06429 25.6541 4.25379" fill="white"/>
</g>
<g opacity="0.3">
<path d="M32.8072 22.4607L12.7746 33.369C11.7253 33.9404 10.4961 33.8488 9.56441 33.2413C10.1631 33.2982 10.785 33.1836 11.3539 32.8736L31.3864 21.9653C32.4346 21.3951 32.866 20.1138 32.3764 19.0259L31.4689 17.0077L27.8614 18.8741C26.5169 19.5696 24.8631 19.0006 24.2314 17.6245C24.0671 17.2662 23.9891 16.8899 23.9891 16.5192C23.9891 15.5565 24.5153 14.6311 25.4235 14.1613L29.2896 12.161L30.2614 11.6582L32.4409 16.5049L33.7971 19.5211C34.2868 20.609 33.8555 21.8903 32.8072 22.4605V22.4607Z" fill="white"/>
</g>
<g opacity="0.3">
<path d="M30.2614 11.6582L29.2895 12.1609L26.2176 5.32885C26.0508 4.95759 25.798 4.65384 25.4936 4.42947C25.5636 4.41205 25.6429 4.39167 25.7204 4.37061L25.7725 4.4859C26.5603 4.56271 27.2887 5.04629 27.6382 5.82417L30.2614 11.6583V11.6582Z" fill="white"/>
</g>
<g opacity="0.6">
<path d="M26.1514 4.55566C25.4018 4.81379 24.6714 5.12524 23.966 5.48731L6.57545 14.4157C6.0561 14.6823 5.48612 14.8388 4.90291 14.8644C4.5002 14.8821 3.99097 14.8752 3.39251 14.808C4.39787 14.7641 5.31197 14.5631 6.11982 14.1793C6.11982 14.1793 24.2599 4.85334 24.3033 4.83147C24.3465 4.8096 26.1516 4.55566 26.1516 4.55566H26.1514Z" fill="white"/>
</g>
<g opacity="0.6">
<path d="M23.8818 2.04543C23.5445 2.04975 23.2037 2.12914 22.882 2.29208L20.5005 3.49765L2.89031 12.4206C1.28865 13.4434 0.776044 15.4815 1.52288 16.8811L9.25687 32.1562C9.66539 32.9632 10.3739 33.5155 11.1766 33.7485C10.072 33.7119 9.01819 33.0921 8.4821 32.0321L0.748098 16.7571C0.00113165 15.3574 0.513735 13.3195 2.11553 12.2967L19.7256 3.37385L22.107 2.16829C22.6823 1.87695 23.3195 1.85211 23.8816 2.04557L23.8818 2.04543Z" fill="white"/>
</g>
<path d="M14.1514 9.97147L10.5753 11.7771L5.59102 14.2944L3.22822 12.9363L0.24791 11.2231L5.67594 1.78076L11.034 4.86083L11.7301 6.00255L14.1514 9.97147Z" fill="#29B860"/>
<path d="M9.98034 5.61395L7.08252 3.94775C6.77377 4.48452 6.08823 4.66988 5.55146 4.36127L2.41496 9.81724C2.95172 10.126 3.13708 10.8115 2.82847 11.3483L4.47549 12.2955L6.85693 13.6641L11.9707 11.1713L9.42818 7.5492L9.29318 7.2792L8.74777 6.56355L9.98034 5.61395Z" fill="#4FEC91"/>
<path d="M9.15599 10.8482C9.7005 10.3037 9.7005 9.42089 9.15599 8.87638C8.61148 8.33188 7.72866 8.33188 7.18415 8.87639C6.63965 9.42089 6.63965 10.3037 7.18415 10.8482C7.72866 11.3927 8.61148 11.3927 9.15599 10.8482Z" fill="#1FBC61"/>
<g opacity="0.3">
<path d="M14.1514 9.97137L10.5753 11.777L10.1296 11.1534L9.50054 10.272L8.23409 8.49931L10.6379 6.78221L11.7301 6.00244L14.1514 9.97137Z" fill="white"/>
</g>
<path d="M21.7061 6.14656L20.3554 4.25545L19.7257 3.37402L17.4936 0.248047L11.034 4.86107L8.63017 6.57803L9.89663 8.35087L10.5257 9.2323L11.8764 11.1234" fill="#29B860"/>
<path d="M20.6431 6.68448L19.2931 4.79323L17.8718 2.80344C17.3678 3.16362 16.6674 3.04644 16.3072 2.54248L11.1859 6.20023C11.5461 6.70419 11.4289 7.40458 10.925 7.76476L11.5882 8.69398L12.9389 10.5846" fill="#4FEC91"/>
<g opacity="0.6">
<path d="M21.7061 6.14656L21.2549 6.37471L20.247 4.96326L19.6172 4.08184L17.3851 0.955998L10.9256 5.56888L8.92839 6.99518L8.63017 6.57802L11.034 4.86107L17.4936 0.248047L19.7257 3.37402L20.3554 4.25545L21.7061 6.14656Z" fill="white"/>
</g>
<g opacity="0.55">
<path d="M11.034 4.86083L10.5394 5.21414L5.90355 2.54933L0.751198 11.5125L0.24791 11.2231L5.67594 1.78076L11.034 4.86083Z" fill="white"/>
</g>
<path d="M17.1521 8.39949C17.6966 7.85498 17.6966 6.97216 17.1521 6.42765C16.6076 5.88315 15.7248 5.88315 15.1803 6.42765C14.6358 6.97216 14.6358 7.85498 15.1803 8.39949C15.7248 8.944 16.6076 8.944 17.1521 8.39949Z" fill="#1FBC61"/>
<path d="M11.2823 34C10.9445 34 10.6046 33.9487 10.272 33.8452C9.39147 33.5711 8.67731 32.967 8.26096 32.1443L0.526962 16.8692C0.465131 16.747 0.514003 16.5978 0.636179 16.536C0.758221 16.474 0.907533 16.5231 0.969364 16.6452L8.70323 31.9203C9.05855 32.6223 9.66795 33.1378 10.4192 33.3717C11.1705 33.6057 11.9649 33.5272 12.656 33.151L32.6885 22.2427C33.6172 21.7374 34.0048 20.5866 33.5709 19.6228L27.412 5.92579C27.1131 5.26077 26.4756 4.80365 25.7483 4.73264C25.3637 4.69484 24.9777 4.76774 24.631 4.94325L5.96404 14.3942C5.86602 14.4421 5.77503 14.4845 5.69079 14.5215C4.03378 15.2555 2.36407 15.228 1.96986 14.4598C1.84283 14.2125 1.69905 13.548 3.10267 12.7226C3.22066 12.6532 3.37267 12.6926 3.44206 12.8106C3.51145 12.9286 3.47203 13.0806 3.35404 13.15C2.55861 13.6178 2.30723 14.0312 2.41105 14.2333C2.58601 14.5742 3.79793 14.8176 5.49085 14.0678C5.56969 14.0332 5.65434 13.9938 5.74331 13.9503L24.4072 4.50084C24.8383 4.28282 25.3185 4.19223 25.7968 4.23908C26.7006 4.32723 27.4929 4.89573 27.8645 5.72248L34.0234 19.4195C34.5631 20.6183 34.0811 22.0498 32.9258 22.6783L12.8934 33.5865C12.3896 33.8608 11.8388 34 11.2824 34H11.2823Z" fill="white"/>
<path d="M20.3557 4.50318C20.2652 4.50318 20.178 4.4535 20.1343 4.36724C20.0724 4.24506 20.1213 4.09588 20.2435 4.03405L22.4229 2.93068C23.0467 2.61464 23.7533 2.56901 24.4127 2.80202C25.0722 3.03504 25.5935 3.51456 25.8802 4.15231C25.9364 4.27719 25.8806 4.42394 25.7557 4.4801C25.631 4.53626 25.4841 4.48064 25.428 4.35563C25.1972 3.84262 24.7781 3.45692 24.2475 3.26953C23.7169 3.08215 23.1486 3.11887 22.647 3.37308L20.4676 4.47645C20.4317 4.49468 20.3935 4.50318 20.3558 4.50318H20.3557Z" fill="white"/>
<path d="M2.70467 16.8055C2.69603 16.8055 2.68739 16.8048 2.67861 16.8034C2.3974 16.7598 2.16871 16.6761 1.99928 16.555C1.92341 16.5009 1.906 16.3955 1.96013 16.3196C2.0144 16.2437 2.11984 16.2264 2.19558 16.2804C2.31991 16.3694 2.50487 16.4349 2.73046 16.47C2.82253 16.4843 2.88557 16.5706 2.87126 16.6626C2.8583 16.7459 2.78648 16.8055 2.70467 16.8055Z" fill="white"/>
<path d="M11.6375 32.4489C11.5573 32.4489 11.486 32.3915 11.4716 32.3097C11.4552 32.2179 11.5164 32.1303 11.6082 32.1141C11.958 32.0518 12.3224 31.9185 12.6912 31.7176L12.7862 31.6667C12.8683 31.6227 12.9706 31.6536 13.0147 31.7358C13.0587 31.8179 13.0277 31.9202 12.9455 31.9642L12.8516 32.0146C12.4517 32.2323 12.0529 32.3777 11.6673 32.4463C11.6573 32.4481 11.6474 32.449 11.6376 32.449L11.6375 32.4489ZM14.0291 31.3613C13.9688 31.3613 13.9105 31.329 13.8801 31.2722C13.8361 31.1901 13.8671 31.0878 13.9493 31.0438L15.1123 30.421C15.1944 30.377 15.2967 30.4079 15.3407 30.4901C15.3847 30.5722 15.3538 30.6745 15.2716 30.7186L14.1086 31.3413C14.0832 31.355 14.0559 31.3613 14.0291 31.3613ZM16.3553 30.1158C16.2951 30.1158 16.2367 30.0835 16.2064 30.0267C16.1624 29.9446 16.1933 29.8423 16.2755 29.7983L17.4385 29.1755C17.5206 29.1315 17.6229 29.1625 17.667 29.2446C17.711 29.3267 17.6801 29.429 17.5978 29.473L16.4348 30.0958C16.4094 30.1094 16.3821 30.1158 16.3553 30.1158ZM18.6814 28.8701C18.6212 28.8701 18.5628 28.8378 18.5325 28.781C18.4884 28.6989 18.5194 28.5966 18.6016 28.5526L19.7646 27.9298C19.8467 27.8858 19.949 27.9167 19.993 27.9989C20.0371 28.081 20.0061 28.1834 19.9239 28.2274L18.7609 28.8501C18.7355 28.8638 18.7082 28.8701 18.6814 28.8701ZM21.0076 27.6246C20.9474 27.6246 20.8891 27.5922 20.8587 27.5353C20.8147 27.4533 20.8456 27.3509 20.9278 27.3069L22.0908 26.6842C22.1729 26.6401 22.2753 26.6711 22.3193 26.7533C22.3633 26.8354 22.3324 26.9377 22.2501 26.9817L21.0871 27.6045C21.0617 27.6181 21.0344 27.6244 21.0076 27.6244V27.6246ZM23.3338 26.3789C23.2736 26.3789 23.2153 26.3467 23.1849 26.2898C23.1409 26.2076 23.1718 26.1054 23.254 26.0614L24.4171 25.4386C24.4991 25.3946 24.6015 25.4255 24.6455 25.5077C24.6895 25.5898 24.6586 25.6922 24.5764 25.7362L23.4133 26.3589C23.3879 26.3726 23.3607 26.3789 23.3338 26.3789ZM25.6599 25.1333C25.5997 25.1333 25.5414 25.101 25.511 25.0442C25.467 24.9621 25.4979 24.8597 25.5801 24.8157L26.7431 24.193C26.8252 24.149 26.9276 24.1799 26.9716 24.2621C27.0156 24.3442 26.9847 24.4465 26.9024 24.4905L25.7394 25.1133C25.714 25.1269 25.6868 25.1333 25.6599 25.1333ZM27.9861 23.8877C27.9259 23.8877 27.8676 23.8553 27.8372 23.7985C27.7932 23.7164 27.8241 23.6141 27.9063 23.5701L29.0694 22.9473C29.1516 22.9033 29.2538 22.9342 29.2978 23.0164C29.3418 23.0985 29.3109 23.2008 29.2287 23.2448L28.0656 23.8676C28.0402 23.8812 28.013 23.8876 27.9861 23.8876V23.8877ZM30.3122 22.6421C30.252 22.6421 30.1937 22.6098 30.1633 22.553C30.1193 22.4709 30.1502 22.3685 30.2324 22.3245L31.2702 21.7689C31.3077 21.7485 31.3459 21.7262 31.3828 21.703C31.4617 21.6533 31.5658 21.6773 31.6154 21.7562C31.6649 21.8352 31.6412 21.9392 31.5622 21.9889C31.5193 22.0159 31.475 22.0418 31.4303 22.066L30.3917 22.6222C30.3663 22.6359 30.3391 22.6422 30.3122 22.6422V22.6421ZM32.331 21.0374C32.3074 21.0374 32.2834 21.0324 32.2605 21.0219C32.1759 20.9829 32.1389 20.8827 32.1778 20.7981C32.305 20.5219 32.3722 20.2155 32.3722 19.9123C32.3722 19.81 32.3646 19.7068 32.3498 19.6057C32.3361 19.5135 32.3999 19.4278 32.4921 19.4142C32.584 19.4009 32.67 19.4642 32.6836 19.5565C32.7011 19.6739 32.7098 19.7937 32.7097 19.9125C32.7097 20.264 32.6318 20.6191 32.4844 20.9391C32.4559 21.001 32.3949 21.0374 32.331 21.0374ZM32.0536 18.5202C31.9896 18.5202 31.9284 18.4836 31.9 18.4215L31.3514 17.2216C31.3127 17.1368 31.3501 17.0368 31.4347 16.998C31.5195 16.9594 31.6196 16.9967 31.6584 17.0813L32.207 18.2812C32.2457 18.366 32.2084 18.466 32.1237 18.5048C32.101 18.5152 32.0771 18.5202 32.0536 18.5202ZM4.01595 16.7427C3.93738 16.7427 3.86705 16.6875 3.85071 16.6076C3.83208 16.5162 3.89108 16.4272 3.98247 16.4086C4.38073 16.3276 4.79127 16.1956 5.20249 16.0163C5.28794 15.9792 5.38744 16.0182 5.42456 16.1035C5.46182 16.189 5.42281 16.2885 5.33735 16.3256C4.9044 16.5143 4.47118 16.6535 4.04984 16.7392C4.0385 16.7415 4.02716 16.7426 4.01609 16.7426L4.01595 16.7427ZM30.9567 16.1202C30.8927 16.1202 30.8316 16.0837 30.8031 16.0217L30.2546 14.8218C30.2158 14.737 30.2532 14.6368 30.3378 14.5981C30.4226 14.5594 30.5227 14.5967 30.5615 14.6814L31.1101 15.8813C31.1488 15.9661 31.1114 16.0662 31.0268 16.105C31.0041 16.1154 30.9802 16.1202 30.9567 16.1202ZM6.45193 15.7537C6.39037 15.7537 6.33097 15.72 6.30127 15.6612C6.25915 15.5781 6.29236 15.4766 6.37552 15.4344L7.55233 14.8379C7.63536 14.7957 7.73702 14.8289 7.77914 14.9121C7.82126 14.9953 7.78805 15.0968 7.70488 15.1389L6.52807 15.7355C6.50364 15.7479 6.47758 15.7537 6.45193 15.7537ZM8.80542 14.5606C8.74386 14.5606 8.68446 14.5268 8.65476 14.4681C8.61264 14.3849 8.64585 14.2834 8.72901 14.2413L9.90582 13.6447C9.98899 13.6026 10.0905 13.6358 10.1326 13.719C10.1747 13.8021 10.1415 13.9036 10.0584 13.9458L8.88156 14.5423C8.85713 14.5548 8.83107 14.5606 8.80542 14.5606ZM29.8597 13.7203C29.7957 13.7203 29.7345 13.6837 29.706 13.6218L29.1575 12.4219C29.1188 12.3371 29.1562 12.2369 29.2408 12.1982C29.3256 12.1594 29.4258 12.1967 29.4645 12.2815L30.013 13.4814C30.0518 13.5661 30.0144 13.6663 29.9297 13.7051C29.9071 13.7155 29.8832 13.7203 29.8597 13.7203ZM11.1589 13.3673C11.0974 13.3673 11.0381 13.3335 11.0083 13.2748C10.9661 13.1916 10.9993 13.0901 11.0825 13.048L12.2593 12.4514C12.3425 12.4093 12.444 12.4425 12.4861 12.5257C12.5282 12.6088 12.495 12.7104 12.4119 12.7525L11.2351 13.3491C11.2106 13.3615 11.1846 13.3673 11.1589 13.3673ZM13.5124 12.1741C13.4508 12.1741 13.3914 12.1404 13.3617 12.0817C13.3196 11.9985 13.3528 11.897 13.436 11.8549L14.6128 11.2583C14.6958 11.2162 14.7975 11.2494 14.8396 11.3325C14.8817 11.4157 14.8485 11.5172 14.7654 11.5593L13.5885 12.1559C13.5641 12.1683 13.5381 12.1741 13.5124 12.1741ZM28.7626 11.3204C28.6987 11.3204 28.6375 11.2838 28.609 11.2218L28.0605 10.0219C28.0218 9.93715 28.059 9.83698 28.1438 9.79823C28.2286 9.75962 28.3286 9.79675 28.3675 9.88153L28.916 11.0814C28.9548 11.1662 28.9175 11.2664 28.8327 11.305C28.81 11.3154 28.7861 11.3204 28.7626 11.3204ZM15.8659 10.981C15.8043 10.981 15.7451 10.9472 15.7152 10.8885C15.6731 10.8053 15.7063 10.7038 15.7895 10.6617L16.9663 10.0651C17.0495 10.023 17.151 10.0562 17.1931 10.1394C17.2352 10.2225 17.202 10.3241 17.1188 10.3662L15.942 10.9628C15.9176 10.9752 15.8915 10.981 15.8659 10.981ZM18.2194 9.78784C18.1578 9.78784 18.0984 9.75409 18.0687 9.69536C18.0266 9.6122 18.0598 9.51068 18.143 9.46856L19.3198 8.87198C19.4028 8.82986 19.5045 8.86307 19.5466 8.94623C19.5887 9.0294 19.5555 9.13092 19.4723 9.17304L18.2955 9.76961C18.2711 9.78203 18.245 9.78784 18.2194 9.78784ZM27.6656 8.92058C27.6016 8.92058 27.5405 8.884 27.512 8.82203L26.9635 7.62213C26.9247 7.53735 26.9621 7.43718 27.0468 7.39844C27.1315 7.35969 27.2316 7.39709 27.2705 7.48173L27.819 8.68163C27.8577 8.76641 27.8203 8.86658 27.7357 8.90533C27.713 8.91572 27.6891 8.92058 27.6656 8.92058ZM20.5729 8.59469C20.5113 8.59469 20.4519 8.56094 20.4222 8.50221C20.3801 8.41905 20.4133 8.31753 20.4965 8.27541L21.6733 7.67884C21.7563 7.63671 21.858 7.66993 21.9001 7.75309C21.9422 7.83625 21.909 7.93777 21.8258 7.97989L20.649 8.57646C20.6246 8.58888 20.5985 8.59469 20.5729 8.59469ZM22.9264 7.40154C22.8648 7.40154 22.8054 7.36779 22.7757 7.30906C22.7336 7.2259 22.7668 7.12438 22.85 7.08226L24.0268 6.48569C24.1099 6.44357 24.2115 6.47678 24.2536 6.55994C24.2957 6.6431 24.2625 6.74462 24.1793 6.78674L23.0025 7.38332C22.9781 7.39574 22.952 7.40154 22.9264 7.40154ZM26.5046 6.55953C26.461 6.55953 26.4174 6.54266 26.3843 6.50904C26.1834 6.30478 25.9034 6.1876 25.6163 6.1876C25.521 6.1876 25.4262 6.20043 25.3344 6.22554C25.2446 6.25024 25.1516 6.19732 25.127 6.10741C25.1025 6.0175 25.1553 5.92462 25.2452 5.90005C25.366 5.86697 25.4907 5.8501 25.6162 5.8501C25.9933 5.8501 26.3611 6.004 26.6249 6.27238C26.6902 6.33881 26.6894 6.44573 26.6229 6.51107C26.5901 6.54333 26.5473 6.55953 26.5046 6.55953Z" fill="white"/>
<path d="M10.3359 32.3408C10.3155 32.3408 10.2948 32.337 10.2746 32.3292C10.06 32.2455 9.8564 32.129 9.66929 31.9828C9.59585 31.9254 9.58289 31.8194 9.64026 31.746C9.69764 31.6727 9.80375 31.6595 9.87719 31.717C10.0383 31.8429 10.2133 31.9431 10.3972 32.0149C10.484 32.0488 10.527 32.1467 10.4931 32.2335C10.467 32.3002 10.4033 32.3409 10.3358 32.3409L10.3359 32.3408Z" fill="white"/>
<path d="M25.7725 4.73361C25.6778 4.73361 25.5875 4.67907 25.5462 4.58727L25.0001 3.37239C24.7694 2.85911 24.3502 2.47327 23.8199 2.28576C23.2896 2.09837 22.7212 2.13509 22.2192 2.38917L19.8376 3.59474C19.7153 3.65643 19.5663 3.60756 19.5045 3.48552C19.4426 3.36334 19.4915 3.21417 19.6137 3.15234L21.9952 1.94677C22.6192 1.63073 23.326 1.5851 23.9853 1.81824C24.6447 2.05139 25.1658 2.53106 25.4525 3.16908L25.9986 4.38396C26.0548 4.50884 25.999 4.65558 25.8741 4.71174C25.8412 4.72659 25.8066 4.73361 25.7726 4.73361H25.7725Z" fill="white"/>
<path d="M0.748348 17.0053C0.659786 17.0053 0.574059 16.9576 0.529374 16.8741C-0.317494 15.2872 0.334161 13.1402 1.982 12.0878C2.09742 12.0141 2.25065 12.048 2.32436 12.1633C2.39807 12.2787 2.36419 12.4319 2.2489 12.5057C0.814093 13.4218 0.238985 15.2767 0.966781 16.6404C1.03131 16.7612 0.985546 16.9114 0.864719 16.9758C0.827594 16.9957 0.787498 17.0051 0.748213 17.0051L0.748348 17.0053Z" fill="white"/>
<path d="M11.8766 11.3712C11.7992 11.3712 11.7231 11.3352 11.6746 11.2674L8.4285 6.72202C8.3903 6.66856 8.37491 6.602 8.38571 6.53707C8.39651 6.47227 8.43269 6.41435 8.48615 6.37614L17.3494 0.0461659C17.4029 0.00796031 17.4695 -0.00742969 17.5344 0.00337047C17.5992 0.0141706 17.6571 0.0503512 17.6953 0.103812L21.9079 6.00232C21.9874 6.1137 21.9617 6.26855 21.8503 6.3482C21.7389 6.42771 21.5841 6.40193 21.5044 6.29055L17.436 0.593734L8.97621 6.63548L12.0783 10.9792C12.1578 11.0905 12.132 11.2454 12.0206 11.325C11.977 11.3562 11.9265 11.3712 11.8767 11.3712H11.8766Z" fill="white"/>
<path d="M12.9391 10.8015C12.8714 10.8015 12.8047 10.7699 12.7623 10.7107L10.7484 7.89089C10.6787 7.79342 10.7014 7.65801 10.7989 7.58835C11.2048 7.29823 11.2993 6.73217 11.0095 6.32648C10.976 6.27964 10.9625 6.22145 10.9719 6.16475C10.9814 6.10805 11.013 6.05729 11.0598 6.02394L16.1811 2.3662C16.2786 2.2964 16.4141 2.31908 16.4837 2.41655C16.7738 2.8225 17.3399 2.91701 17.7455 2.62716C17.7924 2.59368 17.8507 2.58031 17.9073 2.58963C17.9641 2.59908 18.0147 2.63067 18.0482 2.67751L20.8197 6.55855C20.8893 6.65602 20.8667 6.79157 20.7692 6.86109C20.6717 6.93075 20.5362 6.90807 20.4666 6.8106L17.8111 3.09197C17.2981 3.34496 16.6747 3.24101 16.2712 2.83506L11.4744 6.26101C11.7274 6.77401 11.6233 7.39746 11.2174 7.80098L13.1155 10.4585C13.1852 10.556 13.1626 10.6915 13.065 10.7612C13.0268 10.7884 12.9828 10.8017 12.9391 10.8017V10.8015Z" fill="white"/>
<path d="M5.59088 14.5425C5.5489 14.5425 5.50651 14.5318 5.46749 14.5094L0.12438 11.438C0.00571328 11.3697 -0.0351918 11.2182 0.0329843 11.0994L5.46101 1.65709C5.52932 1.53843 5.6808 1.49752 5.7996 1.5657L11.1577 4.64577C11.2764 4.71408 11.3173 4.86555 11.2491 4.98436C11.1809 5.10316 11.0293 5.14406 10.9105 5.07575L5.76747 2.11921L0.586493 11.1315L5.71468 14.0793C5.83335 14.1475 5.87425 14.2991 5.80608 14.4179C5.76018 14.4977 5.67675 14.5424 5.59088 14.5424V14.5425Z" fill="white"/>
<path d="M6.85667 13.8812C6.81995 13.8812 6.78282 13.8718 6.7488 13.8523L2.72034 11.5364C2.61639 11.4768 2.58075 11.3441 2.64042 11.2403C2.88896 10.808 2.73937 10.2541 2.30683 10.0054C2.20301 9.94572 2.16724 9.81301 2.22691 9.7092L5.36341 4.25322C5.39217 4.20341 5.43942 4.16695 5.49504 4.15197C5.55066 4.13698 5.60979 4.14468 5.65974 4.1733C6.09202 4.42184 6.64593 4.27226 6.8946 3.83984C6.95427 3.73589 7.08698 3.70012 7.1908 3.75992L10.0886 5.42612C10.1926 5.48579 10.2282 5.6185 10.1685 5.72231C10.1089 5.82613 9.97616 5.86204 9.87234 5.80223L7.14746 4.23554C6.97169 4.45181 6.73341 4.6072 6.45922 4.68118C6.1849 4.75529 5.90085 4.74098 5.64016 4.64257L2.70252 9.75267C3.146 10.1142 3.3107 10.7244 3.10955 11.2597L6.96508 13.476C7.06903 13.5357 7.1048 13.6684 7.04513 13.7722C7.00503 13.842 6.932 13.881 6.8568 13.881L6.85667 13.8812Z" fill="white"/>
<path d="M32.2978 15.4639L27.324 18.0372C25.9792 18.733 24.3257 18.164 23.6938 16.7879C23.1027 15.5004 23.6274 13.9754 24.8858 13.3244L30.0268 10.6646C30.3559 10.4942 30.7607 10.6336 30.9154 10.9704L32.5894 14.6161C32.7341 14.9314 32.6056 15.3045 32.2977 15.4639H32.2978Z" fill="#E89314"/>
<g opacity="0.6">
<path d="M27.0857 16.6441C27.5418 16.1881 27.5418 15.4487 27.0857 14.9926C26.6297 14.5366 25.8903 14.5366 25.4343 14.9926C24.9782 15.4487 24.9782 16.1881 25.4343 16.6441C25.8903 17.1001 26.6297 17.1001 27.0857 16.6441Z" fill="white"/>
</g>
<g opacity="0.3">
<path d="M32.2977 15.4643L27.3239 18.038C25.9795 18.7335 24.3257 18.1645 23.694 16.7884C23.65 16.6917 23.6115 16.5937 23.5799 16.4952C24.3362 17.521 25.7525 17.8837 26.9315 17.273L31.9052 14.7C32.2133 14.5407 32.3416 14.1676 32.1972 13.8521L30.7901 10.7881C30.8403 10.8395 30.8831 10.9009 30.9153 10.9709L32.5896 14.6162C32.7345 14.9317 32.6056 15.3049 32.2975 15.4642L32.2977 15.4643Z" fill="white"/>
</g>
<g opacity="0.6">
<path d="M30.914 10.9682C30.7659 10.9311 30.6041 10.9453 30.4572 11.0216L25.316 13.6814C24.408 14.1512 23.8816 15.0766 23.8816 16.0393C23.8816 16.41 23.9598 16.7863 24.124 17.1446C24.2548 17.4297 24.4296 17.6795 24.6366 17.8909C24.2393 17.6287 23.9076 17.2549 23.6937 16.7882C23.5294 16.4299 23.4514 16.0536 23.4514 15.6829C23.4514 14.7202 23.9776 13.7948 24.8858 13.325L30.0269 10.6652C30.3555 10.4953 30.759 10.6329 30.9139 10.9682H30.914Z" fill="white"/>
</g>
<path d="M26.1089 18.5842C25.7911 18.5842 25.4717 18.5311 25.1609 18.4242C24.4037 18.1637 23.8027 17.6193 23.4687 16.8917C22.8209 15.4812 23.3935 13.8177 24.772 13.1046L29.9131 10.4448C30.133 10.331 30.3833 10.3126 30.6174 10.3932C30.8517 10.4738 31.0376 10.6422 31.141 10.8673L32.815 14.5131C33.0153 14.9494 32.8382 15.4639 32.4119 15.6845L27.4381 18.2578C27.0188 18.4747 26.5655 18.5842 26.109 18.5842H26.1089ZM30.3249 10.8399C30.2617 10.8399 30.1989 10.8551 30.1409 10.8852L24.9997 13.545C23.8568 14.1363 23.3823 15.5153 23.9192 16.6847C24.1962 17.288 24.6945 17.7392 25.3222 17.9554C25.9499 18.1712 26.6204 18.1224 27.2101 17.8173L32.1839 15.2441C32.3746 15.1454 32.4539 14.9151 32.3642 14.72L30.6902 11.0743C30.6439 10.9736 30.5607 10.8983 30.456 10.8622C30.413 10.8474 30.3688 10.8401 30.3249 10.8401V10.8399Z" fill="white"/>
<path d="M26.8832 16.5093C27.3393 16.0533 27.3393 15.3139 26.8832 14.8579C26.4272 14.4018 25.6878 14.4018 25.2318 14.8579C24.7757 15.3139 24.7757 16.0533 25.2318 16.5093C25.6878 16.9654 26.4272 16.9654 26.8832 16.5093Z" fill="white"/>
<g opacity="0.19">
<path d="M13.4337 21.7713L10.8007 23.1154C10.2809 23.3808 9.64432 23.1679 9.38876 22.643L7.81787 19.4171C7.56825 18.9045 7.77656 18.2865 8.28539 18.0294L10.9056 16.706C11.4231 16.4446 12.0542 16.6554 12.311 17.1751L13.8945 20.3804C14.1472 20.892 13.9418 21.5118 13.4336 21.7714L13.4337 21.7713Z" fill="white"/>
</g>
<g opacity="0.19">
<path d="M15.6577 25.5161L12.346 27.1403C12.0044 27.3078 11.5916 27.166 11.425 26.8241L11.1523 26.2644C10.9891 25.9294 11.1225 25.5254 11.4529 25.3532L14.7226 23.6511C15.0645 23.4731 15.486 23.6109 15.6566 23.9566L15.9715 24.5941C16.1399 24.9353 15.9993 25.3484 15.6577 25.5159V25.5161Z" fill="white"/>
</g>
<g opacity="0.19">
<path d="M25.8438 15.4723C26.0157 15.2641 26.0619 15.0184 25.9469 14.9234C25.8319 14.8285 25.5994 14.9203 25.4275 15.1284C25.2555 15.3366 25.2094 15.5823 25.3244 15.6773C25.4394 15.7722 25.6719 15.6805 25.8438 15.4723Z" fill="white"/>
</g>
</svg>
