<svg width="164" height="163" viewBox="0 0 164 163" fill="none" xmlns="http://www.w3.org/2000/svg">
<path d="M163.5 111.7V143.05C163.5 145.67 162.991 148.264 162.003 150.685C161.014 153.105 159.565 155.304 157.738 157.157C155.911 159.009 153.743 160.479 151.356 161.481C148.969 162.484 146.411 163 143.828 163H20.1724C17.589 163 15.0309 162.484 12.6441 161.481C10.2573 160.479 8.08867 159.009 6.26192 157.157C4.43516 155.304 2.9861 153.105 1.99747 150.685C1.00884 148.264 0.5 145.67 0.5 143.05V111.7C0.5 110.188 1.09218 108.738 2.14626 107.669C3.20035 106.601 4.62999 106 6.12069 106C7.61139 106 9.04103 106.601 10.0951 107.669C11.1492 108.738 11.7414 110.188 11.7414 111.7V143.05C11.7414 145.318 12.6296 147.492 14.2108 149.096C15.7919 150.699 17.9364 151.6 20.1724 151.6H143.828C146.064 151.6 148.208 150.699 149.789 149.096C151.37 147.492 152.259 145.318 152.259 143.05V111.7C152.259 110.188 152.851 108.738 153.905 107.669C154.959 106.601 156.389 106 157.879 106C159.37 106 160.8 106.601 161.854 107.669C162.908 108.738 163.5 110.188 163.5 111.7Z" fill="#00A068"/>
<path d="M34.3217 47.9138H22.1771C20.7372 47.8926 19.3322 47.4679 18.1218 46.6878C16.9114 45.9076 15.9442 44.8035 15.3302 43.501C14.7162 42.1984 14.48 40.7497 14.6486 39.3195C14.8172 37.8894 15.3837 36.5353 16.2837 35.4112L42.5684 2.83866C43.2644 1.95402 44.1522 1.23891 45.1647 0.747195C46.1773 0.255483 47.2882 0 48.4138 0C49.5394 0 50.6504 0.255483 51.6629 0.747195C52.6755 1.23891 53.5632 1.95402 54.2592 2.83866L80.5439 35.4112C81.4439 36.5353 82.0104 37.8894 82.179 39.3195C82.3476 40.7497 82.1115 42.1984 81.4975 43.501C80.8835 44.8035 79.9163 45.9076 78.7059 46.6878C77.4955 47.4679 76.0904 47.8926 74.6506 47.9138H62.506V118.374C62.506 119.869 61.9121 121.303 60.855 122.36C59.7978 123.417 58.3641 124.011 56.8691 124.011H39.9585C38.4635 124.011 37.0298 123.417 35.9727 122.36C34.9156 121.303 34.3217 119.869 34.3217 118.374V47.9138Z" fill="#00A068"/>
<path d="M130.148 76.098H142.293C143.733 76.1192 145.138 76.5439 146.348 77.324C147.559 78.1041 148.526 79.2083 149.14 80.5108C149.754 81.8134 149.99 83.2621 149.821 84.6923C149.653 86.1224 149.086 87.4765 148.186 88.6006L121.902 121.173C121.206 122.058 120.318 122.773 119.305 123.265C118.293 123.756 117.182 124.012 116.056 124.012C114.931 124.012 113.82 123.756 112.807 123.265C111.794 122.773 110.907 122.058 110.211 121.173L83.9261 88.6006C83.026 87.4765 82.4595 86.1224 82.2909 84.6923C82.1224 83.2621 82.3585 81.8134 82.9725 80.5108C83.5865 79.2083 84.5537 78.1041 85.7641 77.324C86.9745 76.5439 88.3796 76.1192 89.8194 76.098H101.964V5.63734C101.964 4.14236 102.558 2.7086 103.615 1.65148C104.672 0.59437 106.106 0.000488281 107.601 0.000488281H124.511C126.006 0.000488281 127.44 0.59437 128.497 1.65148C129.554 2.7086 130.148 4.14236 130.148 5.63734V76.098Z" fill="#00A068"/>
</svg>
